<?xml version="1.0" encoding="UTF-8" standalone="no"?>
<svg
   xmlns:dc="http://purl.org/dc/elements/1.1/"
   xmlns:cc="http://creativecommons.org/ns#"
   xmlns:rdf="http://www.w3.org/1999/02/22-rdf-syntax-ns#"
   xmlns:svg="http://www.w3.org/2000/svg"
   xmlns="http://www.w3.org/2000/svg"
   xmlns:sodipodi="http://sodipodi.sourceforge.net/DTD/sodipodi-0.dtd"
   xmlns:inkscape="http://www.inkscape.org/namespaces/inkscape"
   width="1920"
   height="1080"
   viewBox="0 0 507.99999 285.75001"
   version="1.1"
   id="svg8"
   inkscape:version="1.0.2-2 (e86c870879, 2021-01-15)"
   sodipodi:docname="background.svg">
  <defs
     id="defs2">
    <marker
       style="overflow:visible"
       id="Arrow2Sstart"
       refX="0.0"
       refY="0.0"
       orient="auto"
       inkscape:stockid="Arrow2Sstart"
       inkscape:isstock="true">
      <path
         transform="scale(0.3) translate(-2.3,0)"
         d="M 8.7185878,4.0337352 L -2.2072895,0.016013256 L 8.7185884,-4.0017078 C 6.9730900,-1.6296469 6.9831476,1.6157441 8.7185878,4.0337352 z "
         style="fill-rule:evenodd;stroke-width:0.625;stroke-linejoin:round;stroke:#aaaaaa;stroke-opacity:1;fill:#aaaaaa;fill-opacity:1"
         id="path895" />
    </marker>
    <marker
       style="overflow:visible"
       id="Arrow1Mstart"
       refX="0.0"
       refY="0.0"
       orient="auto"
       inkscape:stockid="Arrow1Mstart"
       inkscape:isstock="true">
      <path
         transform="scale(0.4) translate(10,0)"
         style="fill-rule:evenodd;stroke:#000000;stroke-width:1pt;stroke-opacity:0.37751;fill:#000000;fill-opacity:0.37751"
         d="M 0.0,0.0 L 5.0,-5.0 L -12.5,0.0 L 5.0,5.0 L 0.0,0.0 z "
         id="path871" />
    </marker>
    <marker
       style="overflow:visible"
       id="Arrow2Lstart"
       refX="0.0"
       refY="0.0"
       orient="auto"
       inkscape:stockid="Arrow2Lstart"
       inkscape:isstock="true">
      <path
         transform="scale(1.1) translate(1,0)"
         d="M 8.7185878,4.0337352 L -2.2072895,0.016013256 L 8.7185884,-4.0017078 C 6.9730900,-1.6296469 6.9831476,1.6157441 8.7185878,4.0337352 z "
         style="fill-rule:evenodd;stroke-width:0.625;stroke-linejoin:round;stroke:#000000;stroke-opacity:0.37751;fill:#000000;fill-opacity:0.37751"
         id="path883" />
    </marker>
    <rect
       x="390.4494"
       y="140.22917"
       width="38.175595"
       height="14.741071"
       id="rect1409" />
    <marker
       style="overflow:visible"
       id="SquareM"
       refX="0.0"
       refY="0.0"
       orient="auto"
       inkscape:stockid="SquareM"
       inkscape:isstock="true">
      <path
         transform="scale(0.4)"
         style="fill-rule:evenodd;stroke:#000000;stroke-width:1pt;stroke-opacity:0.361765;fill:#ececec;fill-opacity:1"
         d="M -5.0,-5.0 L -5.0,5.0 L 5.0,5.0 L 5.0,-5.0 L -5.0,-5.0 z "
         id="path938" />
    </marker>
    <marker
       style="overflow:visible"
       id="DiamondL"
       refX="0.0"
       refY="0.0"
       orient="auto"
       inkscape:stockid="DiamondL"
       inkscape:isstock="true">
      <path
         transform="scale(0.8)"
         style="fill-rule:evenodd;stroke:#000000;stroke-width:1pt;stroke-opacity:1;fill:#000000;fill-opacity:1"
         d="M 0,-7.0710768 L -7.0710894,0 L 0,7.0710589 L 7.0710462,0 L 0,-7.0710768 z "
         id="path944" />
    </marker>
    <rect
       x="166.30952"
       y="93.738095"
       width="209.77679"
       height="30.238095"
       id="rect36" />
    <rect
       x="390.4494"
       y="140.22917"
       width="38.175594"
       height="14.741071"
       id="rect1409-8" />
    <rect
       x="390.4494"
       y="140.22917"
       width="38.175594"
       height="14.741071"
       id="rect1506" />
    <rect
       x="390.4494"
       y="140.22917"
       width="69.925594"
       height="9.8273805"
       id="rect1409-8-3" />
    <rect
       x="390.4494"
       y="140.22917"
       width="38.175594"
       height="14.741071"
       id="rect1544" />
  </defs>
  <sodipodi:namedview
     id="base"
     pagecolor="#ffffff"
     bordercolor="#666666"
     borderopacity="1.0"
     inkscape:pageopacity="0.0"
     inkscape:pageshadow="2"
     inkscape:zoom="0.49497475"
     inkscape:cx="758.85117"
     inkscape:cy="581.78668"
     inkscape:document-units="mm"
     inkscape:current-layer="layer1"
     inkscape:document-rotation="0"
     showgrid="false"
     inkscape:window-width="1879"
     inkscape:window-height="1086"
     inkscape:window-x="134"
     inkscape:window-y="1274"
     inkscape:window-maximized="0"
     inkscape:snap-grids="false"
     inkscape:snap-page="true"
     units="px" />
  <metadata
     id="metadata5">
    <rdf:RDF>
      <cc:Work
         rdf:about="">
        <dc:format>image/svg+xml</dc:format>
        <dc:type
           rdf:resource="http://purl.org/dc/dcmitype/StillImage" />
        <dc:title></dc:title>
      </cc:Work>
    </rdf:RDF>
  </metadata>
  <g
     inkscape:label="Layer 1"
     inkscape:groupmode="layer"
     id="layer1">
    <path
       style="fill:none;stroke:#000000;stroke-width:0.420337px;stroke-linecap:butt;stroke-linejoin:miter;stroke-opacity:1"
       d="M 0,285.75 C 0,285.75 91.597355,0.85200968 148.91595,0.21034688 206.23454,-0.43131497 379.87612,254.95022 508,257.51688"
       id="path20" />
    <path
       style="fill:none;stroke:#000000;stroke-width:0.264583px;stroke-linecap:butt;stroke-linejoin:miter;stroke-opacity:1"
       d="M 0,285.75 H 507.99999 V 257.51688"
       id="path2057" />
    <path
       style="fill:#f2f2f2;fill-opacity:0.45;stroke:#aaaaaa;stroke-width:1.00000001;stroke-miterlimit:1;stroke-dasharray:none;stroke-dashoffset:0;stroke-opacity:1;paint-order:normal"
       d="m 3.2570641,1076.918 c 0,-6.1402 64.8193129,-190.46675 102.3598559,-291.08051 C 174.24365,601.90853 237.43277,453.41813 302.49459,323.18763 403.97062,120.06884 484.36371,17.278328 552.18359,3.9355817 583.82828,-2.2901291 630.57295,18.400502 696.9115,67.996597 751.64058,108.91322 816.87611,168.20954 942.30164,291.04578 c 221.63556,217.06009 273.22556,266.36214 352.08626,336.47161 197.8281,175.875 353.3683,278.31065 489.7681,322.55139 34.7876,11.28322 68.3667,18.88387 96.1193,21.75667 11.5821,1.1989 24.9222,2.62724 29.6447,3.17408 l 8.5863,0.99423 v 51.39394 51.394 H 960.88168 c -583.4507,0 -957.6246159,-0.7282 -957.6246159,-1.8637 z"
       id="path2061"
       transform="scale(0.26458333)" />
  </g>
</svg>
